<?xml version="1.0" standalone="no"?>
        <!DOCTYPE svg PUBLIC "-//W3C//DTD SVG 1.1//EN" 
        "http://www.w3.org/Graphics/SVG/1.1/DTD/svg11.dtd"> <svg style="color: rgb(120, 53, 15);" xmlns="http://www.w3.org/2000/svg" width="16" height="16" fill="currentColor" class="bi bi-bookmark-heart" viewBox="0 0 16 16"> <path fill-rule="evenodd" d="M8 4.41c1.387-1.425 4.854 1.07 0 4.277C3.146 5.48 6.613 2.986 8 4.412z" fill="#78350f"></path> <path d="M2 2a2 2 0 0 1 2-2h8a2 2 0 0 1 2 2v13.5a.5.5 0 0 1-.777.416L8 13.101l-5.223 2.815A.5.5 0 0 1 2 15.5V2zm2-1a1 1 0 0 0-1 1v12.566l4.723-2.482a.5.5 0 0 1 .554 0L13 14.566V2a1 1 0 0 0-1-1H4z" fill="#78350f"></path> </svg> 